<mxfile host="65bd71144e">
    <diagram id="iLUUwTYkOgxTiae9ye99" name="Page-1">
        <mxGraphModel dx="821" dy="420" grid="1" gridSize="10" guides="1" tooltips="1" connect="1" arrows="1" fold="1" page="1" pageScale="1" pageWidth="827" pageHeight="1169" math="0" shadow="0">
            <root>
                <mxCell id="0"/>
                <mxCell id="1" parent="0"/>
            </root>
        </mxGraphModel>
    </diagram>
    <diagram id="kS05uXAYE9yC59lNjNxG" name="db">
        <mxGraphModel dx="4415" dy="2255" grid="1" gridSize="10" guides="1" tooltips="1" connect="1" arrows="1" fold="1" page="1" pageScale="1" pageWidth="850" pageHeight="1100" math="0" shadow="0">
            <root>
                <mxCell id="K9gLetkC7h7MM4Zc6rec-0"/>
                <mxCell id="K9gLetkC7h7MM4Zc6rec-1" parent="K9gLetkC7h7MM4Zc6rec-0"/>
            </root>
        </mxGraphModel>
    </diagram>
</mxfile>